<?xml version="1.0" encoding="utf-8"?>
<!-- Generator: Adobe Illustrator 22.1.0, SVG Export Plug-In . SVG Version: 6.00 Build 0)  -->
<svg version="1.1" id="Layer_1" xmlns="http://www.w3.org/2000/svg" xmlns:xlink="http://www.w3.org/1999/xlink" x="0px" y="0px"
	 viewBox="0 0 32 33" style="enable-background:new 0 0 32 33;" xml:space="preserve">
<style type="text/css">
	.st0{fill:#24894D;}
	.st1{fill:#FFFFFF;}
</style>
<polygon class="st0" points="0,23.7 16,32 32,23.7 32,0 0,0 "/>
<g id="S8eVDx_1_">
	<g>
		<path class="st1" d="M2.6,9c0.7-0.2,1.5-0.4,2.2-0.6c1.7-0.5,3.3-1,5-1.4c1-0.3,2-0.5,3-0.8c1-0.3,1.9-0.6,2.9-0.8
			c0.2-0.1,0.5,0,0.7,0.1c1.3,0.4,2.6,0.9,3.8,1.4c1.6,0.6,3.2,1.1,4.8,1.7c1,0.4,2,0.7,3.1,1.1c0.2,0.1,0.4,0.2,0.7,0.3
			c-1,0.4-2,0.8-2.9,1.2c0.1,0.3,0.3,0.6,0.4,0.9c0.3,0.6,0.2,1.2,0.1,1.8c-0.1,0.5-0.2,1-0.3,1.4c0,0.1,0,0.2,0.1,0.3
			c0.3,0.4,0.2,0.9-0.2,1.2c-0.1,0-0.1,0.2-0.1,0.2c0,0.8,0.5,2,1.2,2.6c-0.4,0.2-0.8,0.4-1.2,0.5c-0.3,0.1-0.5-0.1-0.7-0.5
			c-0.3-0.7-0.5-1.3-0.3-2.1c0.1-0.3,0.2-0.6,0.3-0.9c0-0.1,0-0.2,0-0.3c-0.2-0.4-0.1-0.8,0.3-1c0,0,0.1-0.1,0.1-0.1
			c0.2-0.9,0.5-1.8,0.2-2.7c-0.1-0.3-0.3-0.6-0.4-0.9c0-0.1-0.2-0.1-0.3-0.1c-0.9,0.3-1.7,0.7-2.6,1c-0.7,0.3-1.3,0.5-2,0.8
			c-1.2,0.5-2.5,1-3.7,1.5c-0.3,0.1-0.5,0.1-0.7,0c-1.2-0.5-2.4-1-3.6-1.5c-1.5-0.7-3.1-1.3-4.6-2c-1-0.4-1.9-0.8-2.9-1.2
			C4.1,9.6,3.4,9.3,2.6,9C2.7,9,2.7,9,2.6,9z"/>
		<path class="st1" d="M8.7,12.9c1.4,0.6,2.7,1.2,4,1.7c1.1,0.5,2.1,0.9,3.2,1.4c0.2,0.1,0.4,0.1,0.6,0c1.3-0.5,2.6-1,3.9-1.6
			c0.9-0.3,1.7-0.7,2.6-1.1c0.4,1.3,0.5,2.7,0.2,4.1c-3.1-0.7-5.7,0.2-7.8,2.7c-1.7-2.7-4.1-4-7.3-3.8C8,15.1,8.3,14,8.7,12.9z"/>
	</g>
</g>
</svg>
